<?xml version="1.0" encoding="utf-8"?>
<!-- Generator: Adobe Illustrator 26.0.3, SVG Export Plug-In . SVG Version: 6.00 Build 0)  -->
<svg version="1.1" id="Layer_1" xmlns="http://www.w3.org/2000/svg" xmlns:xlink="http://www.w3.org/1999/xlink" x="0px" y="0px"
	 viewBox="0 0 1921.5 625" style="enable-background:new 0 0 1921.5 625;" xml:space="preserve">
<style type="text/css">
	.st0{fill:#FFFFFF;}
	.st1{fill:none;stroke:#34383C;stroke-linejoin:round;}
	.st2{fill:none;stroke:#34383C;stroke-linejoin:round;stroke-dasharray:4.001,4.001;}
	.st3{fill:none;stroke:#34383C;stroke-linejoin:round;stroke-dasharray:3.9916,3.9916;}
	.st4{fill:none;stroke:#34383C;stroke-linejoin:round;stroke-dasharray:4,4;}
	.st5{fill:none;stroke:#34383C;stroke-linejoin:round;stroke-dasharray:3.9997,3.9997;}
	.st6{fill:none;stroke:#34383C;stroke-linejoin:round;stroke-dasharray:3.9993,3.9993;}
	.st7{fill:none;stroke:#34383C;stroke-linejoin:round;stroke-dasharray:3.999,3.999;}
	.st8{fill:none;stroke:#34383C;stroke-linejoin:round;stroke-dasharray:3.9987,3.9987;}
	.st9{fill:none;stroke:#34383C;stroke-linejoin:round;stroke-dasharray:3.9984,3.9984;}
</style>
<g>
	<g>
		<g>
			<line class="st0" x1="0.5" y1="46.65" x2="1921" y2="46.65"/>
			<g>
				<line class="st1" x1="0.5" y1="46.65" x2="2.5" y2="46.65"/>
				<line class="st2" x1="6.5" y1="46.65" x2="1917" y2="46.65"/>
				<line class="st1" x1="1919" y1="46.65" x2="1921" y2="46.65"/>
			</g>
		</g>
		<g>
			<line class="st0" x1="0.5" y1="162.14" x2="1921" y2="162.14"/>
			<g>
				<line class="st1" x1="0.5" y1="162.14" x2="2.5" y2="162.14"/>
				<line class="st2" x1="6.5" y1="162.14" x2="1917" y2="162.14"/>
				<line class="st1" x1="1919" y1="162.14" x2="1921" y2="162.14"/>
			</g>
		</g>
		<g>
			<line class="st0" x1="0.5" y1="277.63" x2="1921" y2="277.63"/>
			<g>
				<line class="st1" x1="0.5" y1="277.63" x2="2.5" y2="277.63"/>
				<line class="st2" x1="6.5" y1="277.63" x2="1917" y2="277.63"/>
				<line class="st1" x1="1919" y1="277.63" x2="1921" y2="277.63"/>
			</g>
		</g>
		<g>
			<line class="st0" x1="0.5" y1="393.12" x2="1921" y2="393.12"/>
			<g>
				<line class="st1" x1="0.5" y1="393.12" x2="2.5" y2="393.12"/>
				<line class="st2" x1="6.5" y1="393.12" x2="1917" y2="393.12"/>
				<line class="st1" x1="1919" y1="393.12" x2="1921" y2="393.12"/>
			</g>
		</g>
		<g>
			<line class="st0" x1="0.5" y1="508.61" x2="1921" y2="508.61"/>
			<g>
				<line class="st1" x1="0.5" y1="508.61" x2="2.5" y2="508.61"/>
				<line class="st2" x1="6.5" y1="508.61" x2="1917" y2="508.61"/>
				<line class="st1" x1="1919" y1="508.61" x2="1921" y2="508.61"/>
			</g>
		</g>
		<g>
			<line class="st0" x1="10.62" y1="624.09" x2="1910.62" y2="624.09"/>
			<g>
				<line class="st1" x1="10.62" y1="624.09" x2="12.62" y2="624.09"/>
				<line class="st3" x1="16.62" y1="624.09" x2="1906.63" y2="624.09"/>
				<line class="st1" x1="1908.62" y1="624.09" x2="1910.62" y2="624.09"/>
			</g>
		</g>
		<g>
			<line class="st0" x1="965.47" y1="0.5" x2="965.47" y2="624.5"/>
			<g>
				<line class="st1" x1="965.47" y1="0.5" x2="965.47" y2="2.5"/>
				<line class="st4" x1="965.47" y1="6.5" x2="965.47" y2="620.5"/>
				<line class="st1" x1="965.47" y1="622.5" x2="965.47" y2="624.5"/>
			</g>
		</g>
		<g>
			<line class="st0" x1="849.98" y1="0.5" x2="849.98" y2="624.45"/>
			<g>
				<line class="st1" x1="849.98" y1="0.5" x2="849.98" y2="2.5"/>
				<line class="st5" x1="849.98" y1="6.5" x2="849.98" y2="620.45"/>
				<line class="st1" x1="849.98" y1="622.45" x2="849.98" y2="624.45"/>
			</g>
		</g>
		<g>
			<line class="st0" x1="734.49" y1="0.5" x2="734.49" y2="624.4"/>
			<g>
				<line class="st1" x1="734.49" y1="0.5" x2="734.49" y2="2.5"/>
				<line class="st6" x1="734.49" y1="6.5" x2="734.49" y2="620.4"/>
				<line class="st1" x1="734.49" y1="622.4" x2="734.49" y2="624.4"/>
			</g>
		</g>
		<g>
			<line class="st0" x1="619.01" y1="0.5" x2="619.01" y2="624.35"/>
			<g>
				<line class="st1" x1="619.01" y1="0.5" x2="619.01" y2="2.5"/>
				<line class="st7" x1="619.01" y1="6.5" x2="619.01" y2="620.35"/>
				<line class="st1" x1="619.01" y1="622.35" x2="619.01" y2="624.35"/>
			</g>
		</g>
		<g>
			<line class="st0" x1="503.52" y1="0.5" x2="503.52" y2="624.3"/>
			<g>
				<line class="st1" x1="503.52" y1="0.5" x2="503.52" y2="2.5"/>
				<line class="st8" x1="503.52" y1="6.5" x2="503.52" y2="620.3"/>
				<line class="st1" x1="503.52" y1="622.3" x2="503.52" y2="624.3"/>
			</g>
		</g>
		<g>
			<line class="st0" x1="388.03" y1="0.5" x2="388.03" y2="624.25"/>
			<g>
				<line class="st1" x1="388.03" y1="0.5" x2="388.03" y2="2.5"/>
				<line class="st9" x1="388.03" y1="6.5" x2="388.03" y2="620.25"/>
				<line class="st1" x1="388.03" y1="622.25" x2="388.03" y2="624.25"/>
			</g>
		</g>
		<g>
			<line class="st0" x1="272.54" y1="0.5" x2="272.54" y2="624.4"/>
			<g>
				<line class="st1" x1="272.54" y1="0.5" x2="272.54" y2="2.5"/>
				<line class="st6" x1="272.54" y1="6.5" x2="272.54" y2="620.4"/>
				<line class="st1" x1="272.54" y1="622.4" x2="272.54" y2="624.4"/>
			</g>
		</g>
		<g>
			<line class="st0" x1="157.05" y1="0.5" x2="157.05" y2="624.35"/>
			<g>
				<line class="st1" x1="157.05" y1="0.5" x2="157.05" y2="2.5"/>
				<line class="st7" x1="157.05" y1="6.5" x2="157.05" y2="620.35"/>
				<line class="st1" x1="157.05" y1="622.35" x2="157.05" y2="624.35"/>
			</g>
		</g>
		<g>
			<line class="st0" x1="41.56" y1="0.5" x2="41.56" y2="624.3"/>
			<g>
				<line class="st1" x1="41.56" y1="0.5" x2="41.56" y2="2.5"/>
				<line class="st8" x1="41.56" y1="6.5" x2="41.56" y2="620.3"/>
				<line class="st1" x1="41.56" y1="622.3" x2="41.56" y2="624.3"/>
			</g>
		</g>
		<g>
			<line class="st0" x1="1542.98" y1="0.5" x2="1542.98" y2="624.45"/>
			<g>
				<line class="st1" x1="1542.98" y1="0.5" x2="1542.98" y2="2.5"/>
				<line class="st5" x1="1542.98" y1="6.5" x2="1542.98" y2="620.45"/>
				<line class="st1" x1="1542.98" y1="622.45" x2="1542.98" y2="624.45"/>
			</g>
		</g>
		<g>
			<line class="st0" x1="1427.49" y1="0.5" x2="1427.49" y2="624.4"/>
			<g>
				<line class="st1" x1="1427.49" y1="0.5" x2="1427.49" y2="2.5"/>
				<line class="st6" x1="1427.49" y1="6.5" x2="1427.49" y2="620.4"/>
				<line class="st1" x1="1427.49" y1="622.4" x2="1427.49" y2="624.4"/>
			</g>
		</g>
		<g>
			<line class="st0" x1="1312.01" y1="0.5" x2="1312.01" y2="624.35"/>
			<g>
				<line class="st1" x1="1312.01" y1="0.5" x2="1312.01" y2="2.5"/>
				<line class="st7" x1="1312.01" y1="6.5" x2="1312.01" y2="620.35"/>
				<line class="st1" x1="1312.01" y1="622.35" x2="1312.01" y2="624.35"/>
			</g>
		</g>
		<g>
			<line class="st0" x1="1196.52" y1="0.5" x2="1196.52" y2="624.3"/>
			<g>
				<line class="st1" x1="1196.52" y1="0.5" x2="1196.52" y2="2.5"/>
				<line class="st8" x1="1196.52" y1="6.5" x2="1196.52" y2="620.3"/>
				<line class="st1" x1="1196.52" y1="622.3" x2="1196.52" y2="624.3"/>
			</g>
		</g>
		<g>
			<line class="st0" x1="1081.03" y1="0.5" x2="1081.03" y2="624.25"/>
			<g>
				<line class="st1" x1="1081.03" y1="0.5" x2="1081.03" y2="2.5"/>
				<line class="st9" x1="1081.03" y1="6.5" x2="1081.03" y2="620.25"/>
				<line class="st1" x1="1081.03" y1="622.25" x2="1081.03" y2="624.25"/>
			</g>
		</g>
		<g>
			<line class="st0" x1="1889.38" y1="0.5" x2="1889.38" y2="624.4"/>
			<g>
				<line class="st1" x1="1889.38" y1="0.5" x2="1889.38" y2="2.5"/>
				<line class="st6" x1="1889.38" y1="6.5" x2="1889.38" y2="620.4"/>
				<line class="st1" x1="1889.38" y1="622.4" x2="1889.38" y2="624.4"/>
			</g>
		</g>
		<g>
			<line class="st0" x1="1773.89" y1="0.5" x2="1773.89" y2="624.35"/>
			<g>
				<line class="st1" x1="1773.89" y1="0.5" x2="1773.89" y2="2.5"/>
				<line class="st7" x1="1773.89" y1="6.5" x2="1773.89" y2="620.35"/>
				<line class="st1" x1="1773.89" y1="622.35" x2="1773.89" y2="624.35"/>
			</g>
		</g>
		<g>
			<line class="st0" x1="1658.4" y1="0.5" x2="1658.4" y2="624.3"/>
			<g>
				<line class="st1" x1="1658.4" y1="0.5" x2="1658.4" y2="2.5"/>
				<line class="st8" x1="1658.4" y1="6.5" x2="1658.4" y2="620.3"/>
				<line class="st1" x1="1658.4" y1="622.3" x2="1658.4" y2="624.3"/>
			</g>
		</g>
	</g>
</g>
</svg>
