<svg id="Layer_1" data-name="Layer 1" xmlns="http://www.w3.org/2000/svg" viewBox="0 0 1024 1024"><defs><style>.cls-1{fill:#fff;}</style></defs><title>Zakya- bundle_2</title><path d="M0,268.77V714.08H341l104.88,41.15L445.8,443,341,403.4H500.27V714.08H1024V268.77Z"/><path class="cls-1" d="M499.85,549.26l56.63-74.49h48l-57.22,71.67L609,632.27H558Z"/><path class="cls-1" d="M676,474.77l37.64,94.56,35.24-94.56h41.85l-85.22,211.1H663.31L691,616.31,629,474.77Z"/><path class="cls-1" d="M896.76,538v-6.33c0-18.67-5.42-28.91-25.6-28.91-14.15,0-26.5,6.33-31.32,20.18L806.42,508.5c10.23-28.61,39.75-37.35,67.45-37.35,39.15,0,66,16.27,66,58.43V632.27H897.36v-19c-11.74,16.57-27.7,22.29-47.58,22.29-29.81,0-52.7-15.06-52.7-47C797.08,537.1,860,538,896.76,538Zm-34,67.15c17.16,0,34-8.73,34-28V563.91H879.89c-15.66,0-40,1.2-40,22.28C839.84,600.35,850.08,605.16,862.73,605.16Z"/><path class="cls-1" d="M76.67,615.4,158,508.5H84.5V474.77H217.6v16.86L135.69,598.54h78.9v33.73H76.67Z"/><path class="cls-1" d="M340.11,538v-6.33c0-18.67-5.42-28.91-25.6-28.91-14.15,0-26.5,6.33-31.32,20.18L249.76,508.5c10.24-28.61,39.75-37.35,67.46-37.35,39.15,0,65.95,16.27,65.95,58.43V649.05l-42.46-16.78v-19C329,629.86,313,635.58,293.13,635.58c-29.81,0-52.7-15.06-52.7-47C240.43,537.1,303.37,538,340.11,538Zm-34,67.15c17.16,0,34-8.73,34-28V563.91H323.24c-15.66,0-40.05,1.2-40.05,22.28C283.19,600.35,293.43,605.16,306.08,605.16Z"/><polygon class="cls-1" points="445.92 755.23 500.27 714.08 500.27 403.4 341.04 403.4 445.8 442.99 445.92 755.23"/></svg>