<svg version="1.1" id="Layer_1" xmlns="http://www.w3.org/2000/svg" x="0" y="0" viewBox="0 0 1921.5 625" style="enable-background:new 0 0 1921.5 625" xml:space="preserve"><style>.st0{fill:#fff}.st1,.st2,.st5,.st6,.st7,.st8,.st9{fill:none;stroke:#34383c;stroke-linejoin:round}.st2,.st5,.st6,.st7,.st8,.st9{stroke-dasharray:4.001,4.001}.st5,.st6,.st7,.st8,.st9{stroke-dasharray:3.9997,3.9997}.st6,.st7,.st8,.st9{stroke-dasharray:3.9993,3.9993}.st7,.st8,.st9{stroke-dasharray:3.999,3.999}.st8,.st9{stroke-dasharray:3.9987,3.9987}.st9{stroke-dasharray:3.9984,3.9984}.st10{fill-rule:evenodd;clip-rule:evenodd;fill:#323232}</style><path class="st0" d="M.5 46.65H1921"/><path class="st1" d="M.5 46.65h2"/><path class="st2" d="M6.5 46.65H1917"/><path class="st1" d="M1919 46.65h2"/><path class="st0" d="M.5 162.14H1921"/><path class="st1" d="M.5 162.14h2"/><path class="st2" d="M6.5 162.14H1917"/><path class="st1" d="M1919 162.14h2"/><path class="st0" d="M.5 277.63H1921"/><path class="st1" d="M.5 277.63h2"/><path class="st2" d="M6.5 277.63H1917"/><path class="st1" d="M1919 277.63h2"/><path class="st0" d="M.5 393.12H1921"/><path class="st1" d="M.5 393.12h2"/><path class="st2" d="M6.5 393.12H1917"/><path class="st1" d="M1919 393.12h2"/><path class="st0" d="M.5 508.61H1921"/><path class="st1" d="M.5 508.61h2"/><path class="st2" d="M6.5 508.61H1917"/><path class="st1" d="M1919 508.61h2"/><path class="st0" d="M10.62 624.09h1900"/><path class="st1" d="M10.62 624.09h2"/><path style="fill:none;stroke:#34383c;stroke-linejoin:round;stroke-dasharray:3.9916,3.9916" d="M16.62 624.09h1890.01"/><path class="st1" d="M1908.62 624.09h2"/><g><path class="st0" d="M965.47.5v624"/><path class="st1" d="M965.47.5v2"/><path style="fill:none;stroke:#34383c;stroke-linejoin:round;stroke-dasharray:4,4" d="M965.47 6.5v614"/><path class="st1" d="M965.47 622.5v2"/></g><g><path class="st0" d="M849.98.5v623.95"/><path class="st1" d="M849.98.5v2"/><path class="st5" d="M849.98 6.5v613.95"/><path class="st1" d="M849.98 622.45v2"/></g><g><path class="st0" d="M734.49.5v623.9"/><path class="st1" d="M734.49.5v2"/><path class="st6" d="M734.49 6.5v613.9"/><path class="st1" d="M734.49 622.4v2"/></g><g><path class="st0" d="M619.01.5v623.85"/><path class="st1" d="M619.01.5v2"/><path class="st7" d="M619.01 6.5v613.85"/><path class="st1" d="M619.01 622.35v2"/></g><g><path class="st0" d="M503.52.5v623.8"/><path class="st1" d="M503.52.5v2"/><path class="st8" d="M503.52 6.5v613.8"/><path class="st1" d="M503.52 622.3v2"/></g><g><path class="st0" d="M388.03.5v623.75"/><path class="st1" d="M388.03.5v2"/><path class="st9" d="M388.03 6.5v613.75"/><path class="st1" d="M388.03 622.25v2"/></g><g><path class="st0" d="M272.54.5v623.9"/><path class="st1" d="M272.54.5v2"/><path class="st6" d="M272.54 6.5v613.9"/><path class="st1" d="M272.54 622.4v2"/></g><g><path class="st0" d="M157.05.5v623.85"/><path class="st1" d="M157.05.5v2"/><path class="st7" d="M157.05 6.5v613.85"/><path class="st1" d="M157.05 622.35v2"/></g><g><path class="st0" d="M41.56.5v623.8"/><path class="st1" d="M41.56.5v2"/><path class="st8" d="M41.56 6.5v613.8"/><path class="st1" d="M41.56 622.3v2"/></g><g><path class="st0" d="M1542.98.5v623.95"/><path class="st1" d="M1542.98.5v2"/><path class="st5" d="M1542.98 6.5v613.95"/><path class="st1" d="M1542.98 622.45v2"/></g><g><path class="st0" d="M1427.49.5v623.9"/><path class="st1" d="M1427.49.5v2"/><path class="st6" d="M1427.49 6.5v613.9"/><path class="st1" d="M1427.49 622.4v2"/></g><g><path class="st0" d="M1312.01.5v623.85"/><path class="st1" d="M1312.01.5v2"/><path class="st7" d="M1312.01 6.5v613.85"/><path class="st1" d="M1312.01 622.35v2"/></g><g><path class="st0" d="M1196.52.5v623.8"/><path class="st1" d="M1196.52.5v2"/><path class="st8" d="M1196.52 6.5v613.8"/><path class="st1" d="M1196.52 622.3v2"/></g><g><path class="st0" d="M1081.03.5v623.75"/><path class="st1" d="M1081.03.5v2"/><path class="st9" d="M1081.03 6.5v613.75"/><path class="st1" d="M1081.03 622.25v2"/></g><g><path class="st0" d="M1889.38.5v623.9"/><path class="st1" d="M1889.38.5v2"/><path class="st6" d="M1889.38 6.5v613.9"/><path class="st1" d="M1889.38 622.4v2"/></g><g><path class="st0" d="M1773.89.5v623.85"/><path class="st1" d="M1773.89.5v2"/><path class="st7" d="M1773.89 6.5v613.85"/><path class="st1" d="M1773.89 622.35v2"/></g><g><path class="st0" d="M1658.4.5v623.8"/><path class="st1" d="M1658.4.5v2"/><path class="st8" d="M1658.4 6.5v613.8"/><path class="st1" d="M1658.4 622.3v2"/></g><g><path class="st10" d="M1158.25 163h-387c-211.53 0-383 171.47-383 383v79h1153v-79c0-211.53-171.47-383-383-383z" id="Rectangle_731"/><path class="st10" d="M368 279h-74c-11.05 0-20 8.95-20 20v74c0 11.05 8.95 20 20 20h74c11.05 0 20-8.95 20-20v-74c0-11.05-8.95-20-20-20z" id="Rectangle_761_copy"/><circle class="st10" cx="1426" cy="163" r="116" id="Rectangle_763"/></g></svg>