<?xml version="1.0" encoding="utf-8"?>
<!-- Generator: Adobe Illustrator 18.0.0, SVG Export Plug-In . SVG Version: 6.00 Build 0)  -->
<!DOCTYPE svg PUBLIC "-//W3C//DTD SVG 1.1//EN" "http://www.w3.org/Graphics/SVG/1.1/DTD/svg11.dtd">
<svg version="1.1" id="Layer_1" xmlns="http://www.w3.org/2000/svg" xmlns:xlink="http://www.w3.org/1999/xlink" x="0px" y="0px"
	 width="150px" height="30px" viewBox="0 0 150 30" style="enable-background:new 0 0 150 30;" xml:space="preserve">
<g>
	<g>
		<polygon style="fill:#E69000;" points="85.1,6.4 85.1,27 82.4,29.8 82.3,9.6 		"/>
		
			<linearGradient id="SVGID_1_" gradientUnits="userSpaceOnUse" x1="73.1398" y1="15.2241" x2="73.1398" y2="-4.0543" gradientTransform="matrix(1 0 0 -1 0 25.132)">
			<stop  offset="5.600000e-03" style="stop-color:#FFE400"/>
			<stop  offset="1" style="stop-color:#F9B900"/>
		</linearGradient>
		<rect x="63.9" y="9.6" style="fill:url(#SVGID_1_);" width="18.5" height="20.2"/>
		<polygon style="fill:#FFEF66;" points="66.8,6.4 63.9,9.6 82.4,9.6 85.1,6.4 		"/>
		<polygon style="fill:#A1CEEF;" points="43.9,7.3 62.1,4.7 60.6,9.2 43.4,11.9 43.4,8.8 		"/>
		
			<linearGradient id="SVGID_2_" gradientUnits="userSpaceOnUse" x1="43.621" y1="13.0875" x2="62.279" y2="-1.8956" gradientTransform="matrix(1 0 0 -1 0 25.132)">
			<stop  offset="5.600000e-03" style="stop-color:#1989CA"/>
			<stop  offset="1" style="stop-color:#025D99"/>
		</linearGradient>
		<polygon style="fill:url(#SVGID_2_);" points="60.6,9.2 63.1,27.2 45.2,29.8 42.8,12.3 43.8,11.5 		"/>
		<polyline style="fill:#1A97D5;" points="62.1,4.7 62.1,4.8 64.5,23.3 63.1,27.2 60.6,9.2 		"/>
		<g>
			
				<linearGradient id="SVGID_3_" gradientUnits="userSpaceOnUse" x1="33.0145" y1="12.6556" x2="33.0145" y2="-4.2341" gradientTransform="matrix(1 0 0 -1 0 25.132)">
				<stop  offset="0" style="stop-color:#209838"/>
				<stop  offset="1" style="stop-color:#008449"/>
			</linearGradient>
			<polygon style="fill:url(#SVGID_3_);" points="28.6,5.8 44.7,13.2 37.4,30 21.4,22.6 			"/>
		</g>
		<polygon style="fill:#A3CF9E;" points="26.9,0 28.6,5.8 44.7,13.2 43.3,7.7 		"/>
		<polygon style="fill:#6EB75E;" points="26.9,0 20.5,15.7 21.4,22.6 28.6,5.8 		"/>
		
			<linearGradient id="SVGID_4_" gradientUnits="userSpaceOnUse" x1="8.9873" y1="14.2745" x2="11.8808" y2="-3.1935" gradientTransform="matrix(1 0 0 -1 0 25.132)">
			<stop  offset="0" style="stop-color:#D41525"/>
			<stop  offset="1" style="stop-color:#B91B2A"/>
		</linearGradient>
		<polygon style="fill:url(#SVGID_4_);" points="18,9.1 20.6,26.9 2.9,29.8 0,11.9 		"/>
		<polygon style="fill:#E63932;" points="0,11.9 1.2,5.6 19.2,2.7 18,9.1 		"/>
		<polygon style="fill:#7B1713;" points="19.2,2.7 21.8,20.6 20.6,26.9 18,9.1 		"/>
		<path style="fill:#FFFFFF;" d="M79.6,16.9c-0.4-0.9-0.9-1.8-1.6-2.5c-0.7-0.7-1.5-1.2-2.3-1.6c-0.8-0.4-1.8-0.5-2.8-0.5
			c-1,0-1.9,0.2-2.8,0.5s-1.6,0.9-2.3,1.6c-0.7,0.7-1.3,1.6-1.6,2.5c-0.4,0.9-0.5,2-0.5,3.1c0,1.1,0.2,2.1,0.5,3.1
			c0.4,0.9,0.9,1.8,1.6,2.5c0.7,0.7,1.4,1.2,2.3,1.6c0.9,0.4,1.8,0.5,2.8,0.5c1,0,1.9-0.2,2.8-0.5c0.9-0.4,1.6-0.9,2.3-1.6
			c0.7-0.7,1.3-1.6,1.6-2.5c0.4-0.9,0.5-2,0.5-3.1C80.1,18.8,79.9,17.8,79.6,16.9z M75.8,23.5c-0.7,0.9-1.7,1.3-2.9,1.3
			c-1.2,0-2.2-0.4-2.9-1.3c-0.7-0.9-1.1-2.1-1.1-3.6c0-1.6,0.4-2.8,1.1-3.7c0.7-0.9,1.7-1.3,2.9-1.3c1.2,0,2.2,0.4,2.9,1.3
			c0.7,0.9,1.1,2.1,1.1,3.7C76.8,21.5,76.5,22.7,75.8,23.5z M11.9,19.4L11.9,19.4L11.9,19.4L11.9,19.4L11.9,19.4z M16.1,24.1
			c-0.1-0.2-0.3-0.3-0.6-0.4c-0.2-0.1-0.5-0.1-0.9-0.1c-0.3,0-0.7,0-1.1,0.1l-4.7,0.8c0.1-0.4,0.2-0.9,0.5-1.4
			c0.4-0.7,0.9-1.5,1.6-2.4l0,0c0.2-0.3,0.4-0.6,0.5-0.7c0.1-0.1,0.2-0.3,0.4-0.5c1.1-1.4,1.7-2.6,2-3.5c0.1-0.5,0.2-1,0.3-1.6
			c0-0.1,0-0.3,0-0.4c0-0.4,0-0.8-0.1-1.1c-0.1-0.3-0.1-0.6-0.2-0.8c-0.1-0.2-0.2-0.4-0.4-0.5c-0.2-0.1-0.5-0.2-0.8-0.2
			c-0.3,0-0.6,0-1,0.1l-5.4,0.9C5.5,12.5,5,12.7,4.7,13c-0.2,0.2-0.4,0.5-0.4,0.9c0,0.1,0,0.2,0,0.3c0.1,0.5,0.3,0.8,0.7,1
			c0.2,0.1,0.5,0.2,0.8,0.2c0.2,0,0.5,0,0.7-0.1l4.5-0.8c0,0.1,0,0.2,0,0.2c0,0.3,0,0.6-0.1,0.9c-0.1,0.4-0.5,0.9-1,1.6
			c-0.2,0.2-0.4,0.5-0.7,0.9c-1.2,1.5-2.1,2.8-2.6,3.9c0,0,0,0,0,0l0,0c-0.4,0.7-0.6,1.5-0.8,2.2c-0.1,0.4-0.1,0.8-0.1,1.2
			c0,0.3,0,0.5,0.1,0.8C5.9,26.5,6,26.8,6.1,27c0.1,0.2,0.3,0.4,0.5,0.5c0.2,0.1,0.4,0.1,0.8,0.1c0.5,0,1.1-0.1,1.8-0.2l4.9-0.9
			c0.9-0.2,1.5-0.4,1.8-0.7c0.3-0.2,0.4-0.6,0.4-0.9c0-0.1,0-0.2,0-0.3C16.3,24.5,16.2,24.3,16.1,24.1z M38.4,12.1
			c-0.6-0.7-1.4-1.2-2.3-1.6c-0.9-0.4-1.8-0.6-2.7-0.6h0c-0.9,0-1.8,0.2-2.7,0.6l0,0c-0.9,0.4-1.8,1-2.5,1.8
			c-0.7,0.8-1.3,1.7-1.7,2.7c-0.4,1-0.7,2.1-0.7,3.1c0,0.1,0,0.2,0,0.4c0,0.9,0.2,1.8,0.5,2.7c0.3,0.9,0.8,1.7,1.4,2.4
			c0.6,0.7,1.4,1.2,2.3,1.6l0,0c0.9,0.4,1.8,0.6,2.7,0.6h0c0.9,0,1.8-0.2,2.7-0.6h0l0,0c0.9-0.4,1.8-1,2.5-1.8
			c0.7-0.8,1.3-1.7,1.7-2.7c0.4-1,0.7-2.1,0.7-3.1c0-0.1,0-0.2,0-0.3c0-0.9-0.2-1.8-0.5-2.7C39.5,13.6,39,12.7,38.4,12.1z
			 M36.6,19.4c-0.6,1.5-1.4,2.5-2.4,3c-0.5,0.3-1.1,0.4-1.6,0.4c-0.5,0-1-0.1-1.5-0.3c-1.1-0.5-1.8-1.3-2.1-2.4
			c-0.1-0.4-0.2-0.8-0.2-1.2c0-0.8,0.2-1.7,0.6-2.7c0.6-1.5,1.4-2.5,2.4-3.1c0.5-0.3,1.1-0.4,1.6-0.4c0.5,0,1,0.1,1.5,0.3
			c1.1,0.5,1.8,1.3,2.1,2.4c0.1,0.4,0.1,0.7,0.1,1.2C37.2,17.5,37,18.4,36.6,19.4z M57.5,12.6c-0.1-0.6-0.3-1-0.6-1.3
			c-0.2-0.2-0.5-0.3-0.9-0.3c-0.1,0-0.2,0-0.3,0c-0.5,0.1-0.8,0.3-1,0.7c-0.2,0.3-0.2,0.6-0.2,0.9c0,0.1,0,0.3,0,0.4l0.7,4.7
			l-5.1,0.8l-0.7-4.7c-0.1-0.5-0.3-1-0.6-1.3c-0.2-0.2-0.5-0.4-0.9-0.4c-0.1,0-0.2,0-0.2,0c-0.5,0.1-0.9,0.3-1.1,0.6
			c-0.2,0.3-0.2,0.6-0.2,0.9c0,0.1,0,0.3,0,0.4l1.8,12.2c0.1,0.6,0.3,1,0.6,1.3c0.2,0.2,0.6,0.3,0.9,0.3c0.1,0,0.2,0,0.3,0
			c0.4-0.1,0.8-0.3,1-0.6c0.1-0.3,0.2-0.6,0.2-0.9c0-0.1,0-0.3,0-0.4l-0.7-4.8l5.1-0.8l0.7,4.8c0.1,0.6,0.3,1,0.6,1.3
			c0.2,0.2,0.6,0.3,0.9,0.3c0.1,0,0.2,0,0.3,0c0.5-0.1,0.8-0.3,1-0.6c0.2-0.3,0.2-0.6,0.2-0.9c0-0.1,0-0.3,0-0.4L57.5,12.6z"/>
	</g>
	<g>
		<path style="fill:#3B3735;" d="M104.6,19.9l3.4,0.4c-0.2,2.1-1,3.8-2.3,5.1c-1.3,1.3-3.1,2-5.3,2c-1.8,0-3.3-0.5-4.5-1.4
			c-1.1-0.9-2-2.2-2.6-3.8c-0.6-1.6-0.9-3.4-0.9-5.4c0-3.1,0.7-5.7,2.2-7.7s3.5-2.9,6-2.9c2,0,3.7,0.6,5,1.9s2.2,3.1,2.5,5.4
			l-3.4,0.4c-0.6-3.1-2-4.7-4.1-4.7c-1.4,0-2.4,0.6-3.2,1.9s-1.1,3.2-1.1,5.6c0,2.5,0.4,4.4,1.2,5.6c0.8,1.3,1.9,1.9,3.2,1.9
			c1.1,0,2-0.4,2.7-1.3C104.1,22.1,104.5,21,104.6,19.9z"/>
		<path style="fill:#3B3735;" d="M126.6,27h-3.8l-3.1-8.5h-5.1V27h-3.6V6.4h8.7c2.4,0,4.2,0.6,5.3,1.7c1.1,1.1,1.7,2.6,1.7,4.3
			c0,2.6-1.2,4.5-3.6,5.5L126.6,27z M114.5,15.6h4.5c1.3,0,2.3-0.3,2.9-0.8c0.6-0.6,1-1.3,1-2.3c0-0.9-0.3-1.6-0.9-2.2
			c-0.6-0.6-1.5-0.8-2.6-0.8h-4.8L114.5,15.6L114.5,15.6z"/>
		<path style="fill:#3B3735;" d="M150,27h-3.7V9l-5.6,18h-1.9l-5.6-18v18h-3V6.4h5.7l4.2,13.3l4.1-13.3h5.7L150,27L150,27z"/>
	</g>
</g>
<g>
</g>
<g>
</g>
<g>
</g>
<g>
</g>
<g>
</g>
<g>
</g>
<g>
</g>
<g>
</g>
<g>
</g>
<g>
</g>
<g>
</g>
<g>
</g>
<g>
</g>
<g>
</g>
<g>
</g>
</svg>
